# xmcd
#
# Track frame offsets: 
#        150
#        21554
#        41662
#        67350
#        84398
#        105126
#        134154
#        155537
#
# Disc length: 2303 seconds
#
# Revision: 1
# Processed by: cddbd v1.5.2PL0 Copyright (c) Steve Scherf et al.
# Submitted via: ExactAudioCopyFreeDBPlugin 1.0
#
DISCID=6e08fd08
DTITLE=Manomay - Moner Manush
DYEAR=2004
DGENRE=Aadhunik
TTITLE0=Moner Manush Chinli Na Re
TTITLE1=Aamar Antare
TTITLE2=Boishakhi Bikel
TTITLE3=Baundule Megher Moton
TTITLE4=Rode Hote Cheyechhe
TTITLE5=Ghoom Aase Na
TTITLE6=Swapno Dekhar Adhikar
TTITLE7=Ja Ja Samay Theme Ja
EXTD=Info submitted by Sudip Kumar Das
EXTT0=
EXTT1=
EXTT2=
EXTT3=
EXTT4=
EXTT5=
EXTT6=
EXTT7=
PLAYORDER=
